<mxfile host="app.diagrams.net" modified="2022-04-02T15:30:13.459Z" agent="5.0 (Windows NT 10.0; Win64; x64) AppleWebKit/537.36 (KHTML, like Gecko) Chrome/98.0.4758.109 Safari/537.36 OPR/84.0.4316.52" etag="JG85VPFiXvSZ3K3sjwVC" version="16.4.2" type="github">
  <diagram id="2LeeSKgqcYLErjVpxvfT" name="Page-1">
    <mxGraphModel dx="3198" dy="815" grid="0" gridSize="10" guides="1" tooltips="1" connect="1" arrows="1" fold="1" page="0" pageScale="1" pageWidth="827" pageHeight="1169" background="#ffffff" math="0" shadow="0">
      <root>
        <mxCell id="0" />
        <mxCell id="1" parent="0" />
        <mxCell id="a2tKn3T9XnNzQSszcCgc-1" value="Вход" style="rounded=1;whiteSpace=wrap;html=1;arcSize=50;" parent="1" vertex="1">
          <mxGeometry x="879" y="425" width="109" height="33" as="geometry" />
        </mxCell>
        <mxCell id="a2tKn3T9XnNzQSszcCgc-2" value="Загрузка" style="shape=parallelogram;perimeter=parallelogramPerimeter;whiteSpace=wrap;html=1;fixedSize=1;" parent="1" vertex="1">
          <mxGeometry x="873.51" y="477" width="120" height="60" as="geometry" />
        </mxCell>
        <mxCell id="a2tKn3T9XnNzQSszcCgc-3" value="Авторизация" style="rhombus;whiteSpace=wrap;html=1;" parent="1" vertex="1">
          <mxGeometry x="871.13" y="555" width="124.75" height="58" as="geometry" />
        </mxCell>
        <mxCell id="a2tKn3T9XnNzQSszcCgc-4" value="Нет" style="endArrow=none;html=1;rounded=0;exitX=1;exitY=0.5;exitDx=0;exitDy=0;entryX=0.5;entryY=0;entryDx=0;entryDy=0;fontSize=13;" parent="1" source="a2tKn3T9XnNzQSszcCgc-3" target="a2tKn3T9XnNzQSszcCgc-3" edge="1">
          <mxGeometry x="-0.8089" width="50" height="50" relative="1" as="geometry">
            <mxPoint x="891" y="605" as="sourcePoint" />
            <mxPoint x="934" y="553" as="targetPoint" />
            <Array as="points">
              <mxPoint x="1030" y="584" />
              <mxPoint x="1030" y="545" />
              <mxPoint x="934" y="545" />
            </Array>
            <mxPoint as="offset" />
          </mxGeometry>
        </mxCell>
        <mxCell id="a2tKn3T9XnNzQSszcCgc-6" value="" style="endArrow=classic;html=1;rounded=0;entryX=0.5;entryY=0;entryDx=0;entryDy=0;exitX=0.5;exitY=1;exitDx=0;exitDy=0;" parent="1" source="a2tKn3T9XnNzQSszcCgc-2" target="a2tKn3T9XnNzQSszcCgc-3" edge="1">
          <mxGeometry width="50" height="50" relative="1" as="geometry">
            <mxPoint x="932" y="535" as="sourcePoint" />
            <mxPoint x="924" y="532" as="targetPoint" />
            <Array as="points">
              <mxPoint x="934" y="546" />
            </Array>
          </mxGeometry>
        </mxCell>
        <mxCell id="a2tKn3T9XnNzQSszcCgc-8" value="" style="endArrow=classic;html=1;rounded=0;exitX=0.5;exitY=1;exitDx=0;exitDy=0;entryX=0.5;entryY=0;entryDx=0;entryDy=0;" parent="1" source="a2tKn3T9XnNzQSszcCgc-1" target="a2tKn3T9XnNzQSszcCgc-2" edge="1">
          <mxGeometry width="50" height="50" relative="1" as="geometry">
            <mxPoint x="896" y="515" as="sourcePoint" />
            <mxPoint x="946" y="465" as="targetPoint" />
          </mxGeometry>
        </mxCell>
        <mxCell id="a2tKn3T9XnNzQSszcCgc-22" style="edgeStyle=orthogonalEdgeStyle;rounded=0;orthogonalLoop=1;jettySize=auto;html=1;fontSize=10;" parent="1" source="a2tKn3T9XnNzQSszcCgc-9" edge="1">
          <mxGeometry relative="1" as="geometry">
            <mxPoint x="933.6190476190476" y="653" as="targetPoint" />
          </mxGeometry>
        </mxCell>
        <mxCell id="a2tKn3T9XnNzQSszcCgc-9" value="2" style="ellipse;whiteSpace=wrap;html=1;aspect=fixed;fontSize=10;" parent="1" vertex="1">
          <mxGeometry x="965.51" y="639" width="28" height="28" as="geometry" />
        </mxCell>
        <mxCell id="a2tKn3T9XnNzQSszcCgc-11" value="Да" style="endArrow=classic;html=1;rounded=0;fontSize=14;exitX=0.5;exitY=1;exitDx=0;exitDy=0;" parent="1" source="a2tKn3T9XnNzQSszcCgc-3" edge="1">
          <mxGeometry x="-0.7783" y="17" width="50" height="50" relative="1" as="geometry">
            <mxPoint x="896" y="658" as="sourcePoint" />
            <mxPoint x="934" y="713" as="targetPoint" />
            <mxPoint as="offset" />
          </mxGeometry>
        </mxCell>
        <mxCell id="a2tKn3T9XnNzQSszcCgc-23" style="edgeStyle=orthogonalEdgeStyle;rounded=0;orthogonalLoop=1;jettySize=auto;html=1;fontSize=10;" parent="1" source="a2tKn3T9XnNzQSszcCgc-12" edge="1">
          <mxGeometry relative="1" as="geometry">
            <mxPoint x="934.0952380952381" y="627.0000000000001" as="targetPoint" />
          </mxGeometry>
        </mxCell>
        <mxCell id="a2tKn3T9XnNzQSszcCgc-12" value="1" style="ellipse;whiteSpace=wrap;html=1;aspect=fixed;fontSize=10;" parent="1" vertex="1">
          <mxGeometry x="881.13" y="613" width="28" height="28" as="geometry" />
        </mxCell>
        <mxCell id="a2tKn3T9XnNzQSszcCgc-21" style="edgeStyle=orthogonalEdgeStyle;rounded=0;orthogonalLoop=1;jettySize=auto;html=1;fontSize=10;" parent="1" source="a2tKn3T9XnNzQSszcCgc-14" edge="1">
          <mxGeometry relative="1" as="geometry">
            <mxPoint x="934.5714285714286" y="681" as="targetPoint" />
          </mxGeometry>
        </mxCell>
        <mxCell id="a2tKn3T9XnNzQSszcCgc-14" value="3" style="ellipse;whiteSpace=wrap;html=1;aspect=fixed;fontSize=10;" parent="1" vertex="1">
          <mxGeometry x="881.13" y="667" width="28" height="28" as="geometry" />
        </mxCell>
        <mxCell id="a2tKn3T9XnNzQSszcCgc-26" style="edgeStyle=orthogonalEdgeStyle;rounded=0;orthogonalLoop=1;jettySize=auto;html=1;entryX=0.5;entryY=0;entryDx=0;entryDy=0;fontSize=10;" parent="1" source="a2tKn3T9XnNzQSszcCgc-24" target="a2tKn3T9XnNzQSszcCgc-25" edge="1">
          <mxGeometry relative="1" as="geometry" />
        </mxCell>
        <mxCell id="a2tKn3T9XnNzQSszcCgc-86" style="edgeStyle=orthogonalEdgeStyle;rounded=0;orthogonalLoop=1;jettySize=auto;html=1;exitX=1;exitY=0.5;exitDx=0;exitDy=0;entryX=0.5;entryY=0;entryDx=0;entryDy=0;fontSize=15;strokeWidth=1;" parent="1" source="a2tKn3T9XnNzQSszcCgc-24" target="a2tKn3T9XnNzQSszcCgc-72" edge="1">
          <mxGeometry relative="1" as="geometry" />
        </mxCell>
        <mxCell id="a2tKn3T9XnNzQSszcCgc-24" value="Панель админа" style="rhombus;whiteSpace=wrap;html=1;" parent="1" vertex="1">
          <mxGeometry x="871.13" y="715" width="124.75" height="58" as="geometry" />
        </mxCell>
        <mxCell id="a2tKn3T9XnNzQSszcCgc-25" value="Выход" style="rounded=1;whiteSpace=wrap;html=1;arcSize=50;" parent="1" vertex="1">
          <mxGeometry x="879.01" y="797" width="109" height="33" as="geometry" />
        </mxCell>
        <mxCell id="a2tKn3T9XnNzQSszcCgc-27" value="Да" style="endArrow=classic;html=1;rounded=0;fontSize=13;exitX=0;exitY=0.5;exitDx=0;exitDy=0;" parent="1" source="a2tKn3T9XnNzQSszcCgc-24" edge="1">
          <mxGeometry x="-0.8345" y="-11" width="50" height="50" relative="1" as="geometry">
            <mxPoint x="932" y="899" as="sourcePoint" />
            <mxPoint x="572" y="849" as="targetPoint" />
            <Array as="points">
              <mxPoint x="572" y="744" />
            </Array>
            <mxPoint as="offset" />
          </mxGeometry>
        </mxCell>
        <mxCell id="a2tKn3T9XnNzQSszcCgc-29" value="Редактирование списка товара" style="shape=parallelogram;perimeter=parallelogramPerimeter;whiteSpace=wrap;html=1;fixedSize=1;" parent="1" vertex="1">
          <mxGeometry x="513" y="788" width="120" height="60" as="geometry" />
        </mxCell>
        <mxCell id="a2tKn3T9XnNzQSszcCgc-35" value="Нет&amp;nbsp;" style="edgeStyle=orthogonalEdgeStyle;rounded=0;orthogonalLoop=1;jettySize=auto;html=1;fontSize=14;" parent="1" source="a2tKn3T9XnNzQSszcCgc-30" target="a2tKn3T9XnNzQSszcCgc-34" edge="1">
          <mxGeometry x="-0.6429" y="11" relative="1" as="geometry">
            <mxPoint as="offset" />
          </mxGeometry>
        </mxCell>
        <mxCell id="a2tKn3T9XnNzQSszcCgc-30" value="Выбор действия" style="rhombus;whiteSpace=wrap;html=1;" parent="1" vertex="1">
          <mxGeometry x="510.63" y="871" width="124.75" height="58" as="geometry" />
        </mxCell>
        <mxCell id="a2tKn3T9XnNzQSszcCgc-33" value="" style="endArrow=classic;html=1;rounded=0;fontSize=10;exitX=0.5;exitY=1;exitDx=0;exitDy=0;entryX=0.5;entryY=0;entryDx=0;entryDy=0;" parent="1" source="a2tKn3T9XnNzQSszcCgc-29" target="a2tKn3T9XnNzQSszcCgc-30" edge="1">
          <mxGeometry width="50" height="50" relative="1" as="geometry">
            <mxPoint x="633" y="779" as="sourcePoint" />
            <mxPoint x="683" y="729" as="targetPoint" />
          </mxGeometry>
        </mxCell>
        <mxCell id="a2tKn3T9XnNzQSszcCgc-37" value="" style="edgeStyle=orthogonalEdgeStyle;rounded=0;orthogonalLoop=1;jettySize=auto;html=1;fontSize=10;" parent="1" source="a2tKn3T9XnNzQSszcCgc-34" edge="1">
          <mxGeometry relative="1" as="geometry">
            <mxPoint x="723.9949999999999" y="1078" as="targetPoint" />
          </mxGeometry>
        </mxCell>
        <mxCell id="a2tKn3T9XnNzQSszcCgc-34" value="Форма" style="whiteSpace=wrap;html=1;fontSize=14;" parent="1" vertex="1">
          <mxGeometry x="663.995" y="938" width="120" height="60" as="geometry" />
        </mxCell>
        <mxCell id="a2tKn3T9XnNzQSszcCgc-42" value="Обновление БД" style="shape=parallelogram;perimeter=parallelogramPerimeter;whiteSpace=wrap;html=1;fixedSize=1;fontSize=14;" parent="1" vertex="1">
          <mxGeometry x="664" y="1075" width="127.01" height="60" as="geometry" />
        </mxCell>
        <mxCell id="a2tKn3T9XnNzQSszcCgc-46" value="Добавление в БД" style="rhombus;whiteSpace=wrap;html=1;" parent="1" vertex="1">
          <mxGeometry x="661.62" y="1181" width="124.75" height="58" as="geometry" />
        </mxCell>
        <mxCell id="a2tKn3T9XnNzQSszcCgc-47" value="" style="edgeStyle=orthogonalEdgeStyle;rounded=0;orthogonalLoop=1;jettySize=auto;html=1;fontSize=10;" parent="1" edge="1">
          <mxGeometry relative="1" as="geometry">
            <mxPoint x="723.4049999999999" y="1137" as="sourcePoint" />
            <mxPoint x="723.4049999999999" y="1181" as="targetPoint" />
          </mxGeometry>
        </mxCell>
        <mxCell id="a2tKn3T9XnNzQSszcCgc-49" value="Да" style="endArrow=classic;html=1;rounded=0;fontSize=15;exitX=1;exitY=0.5;exitDx=0;exitDy=0;" parent="1" source="a2tKn3T9XnNzQSszcCgc-46" edge="1">
          <mxGeometry x="-0.959" y="13" width="50" height="50" relative="1" as="geometry">
            <mxPoint x="836" y="1307" as="sourcePoint" />
            <mxPoint x="573" y="766" as="targetPoint" />
            <Array as="points">
              <mxPoint x="843" y="1210" />
              <mxPoint x="843" y="766" />
            </Array>
            <mxPoint as="offset" />
          </mxGeometry>
        </mxCell>
        <mxCell id="a2tKn3T9XnNzQSszcCgc-50" value="" style="endArrow=classic;html=1;rounded=0;fontSize=14;strokeWidth=1;exitX=0;exitY=0.5;exitDx=0;exitDy=0;entryX=0.5;entryY=0;entryDx=0;entryDy=0;" parent="1" source="a2tKn3T9XnNzQSszcCgc-46" target="a2tKn3T9XnNzQSszcCgc-51" edge="1">
          <mxGeometry width="50" height="50" relative="1" as="geometry">
            <mxPoint x="836" y="1235" as="sourcePoint" />
            <mxPoint x="600" y="1363" as="targetPoint" />
            <Array as="points">
              <mxPoint x="593" y="1210" />
            </Array>
          </mxGeometry>
        </mxCell>
        <mxCell id="a2tKn3T9XnNzQSszcCgc-51" value="2" style="ellipse;whiteSpace=wrap;html=1;aspect=fixed;fontSize=17;" parent="1" vertex="1">
          <mxGeometry x="579" y="1232" width="28" height="28" as="geometry" />
        </mxCell>
        <mxCell id="a2tKn3T9XnNzQSszcCgc-52" value="Таблица с товарами&amp;nbsp;" style="whiteSpace=wrap;html=1;fontSize=15;" parent="1" vertex="1">
          <mxGeometry x="353.005" y="938" width="120" height="60" as="geometry" />
        </mxCell>
        <mxCell id="a2tKn3T9XnNzQSszcCgc-53" value="" style="endArrow=classic;html=1;rounded=0;fontSize=14;strokeWidth=1;exitX=0;exitY=0.5;exitDx=0;exitDy=0;entryX=0.5;entryY=0;entryDx=0;entryDy=0;" parent="1" source="a2tKn3T9XnNzQSszcCgc-30" target="a2tKn3T9XnNzQSszcCgc-52" edge="1">
          <mxGeometry width="50" height="50" relative="1" as="geometry">
            <mxPoint x="600" y="1014" as="sourcePoint" />
            <mxPoint x="650" y="964" as="targetPoint" />
            <Array as="points">
              <mxPoint x="413" y="900" />
            </Array>
          </mxGeometry>
        </mxCell>
        <mxCell id="a2tKn3T9XnNzQSszcCgc-67" value="Нет" style="edgeStyle=orthogonalEdgeStyle;rounded=0;orthogonalLoop=1;jettySize=auto;html=1;exitX=1;exitY=0.5;exitDx=0;exitDy=0;entryX=0.5;entryY=0;entryDx=0;entryDy=0;fontSize=14;strokeWidth=1;" parent="1" source="a2tKn3T9XnNzQSszcCgc-55" target="a2tKn3T9XnNzQSszcCgc-60" edge="1">
          <mxGeometry x="-0.0242" y="13" relative="1" as="geometry">
            <mxPoint as="offset" />
          </mxGeometry>
        </mxCell>
        <mxCell id="a2tKn3T9XnNzQSszcCgc-55" value="Выбор действия" style="rhombus;whiteSpace=wrap;html=1;fontSize=14;" parent="1" vertex="1">
          <mxGeometry x="350.63" y="1024" width="124.75" height="58" as="geometry" />
        </mxCell>
        <mxCell id="a2tKn3T9XnNzQSszcCgc-59" value="" style="endArrow=classic;html=1;rounded=0;fontSize=14;strokeWidth=1;exitX=0.5;exitY=1;exitDx=0;exitDy=0;entryX=0.5;entryY=0;entryDx=0;entryDy=0;" parent="1" source="a2tKn3T9XnNzQSszcCgc-52" target="a2tKn3T9XnNzQSszcCgc-55" edge="1">
          <mxGeometry width="50" height="50" relative="1" as="geometry">
            <mxPoint x="501" y="1061" as="sourcePoint" />
            <mxPoint x="551" y="1011" as="targetPoint" />
          </mxGeometry>
        </mxCell>
        <mxCell id="a2tKn3T9XnNzQSszcCgc-68" style="edgeStyle=orthogonalEdgeStyle;rounded=0;orthogonalLoop=1;jettySize=auto;html=1;exitX=0.5;exitY=1;exitDx=0;exitDy=0;entryX=0.5;entryY=0;entryDx=0;entryDy=0;fontSize=14;strokeWidth=1;" parent="1" source="a2tKn3T9XnNzQSszcCgc-60" target="a2tKn3T9XnNzQSszcCgc-63" edge="1">
          <mxGeometry relative="1" as="geometry" />
        </mxCell>
        <mxCell id="a2tKn3T9XnNzQSszcCgc-60" value="Удаление" style="shape=parallelogram;perimeter=parallelogramPerimeter;whiteSpace=wrap;html=1;fixedSize=1;fontSize=14;" parent="1" vertex="1">
          <mxGeometry x="450.005" y="1075" width="120" height="60" as="geometry" />
        </mxCell>
        <mxCell id="a2tKn3T9XnNzQSszcCgc-71" style="edgeStyle=orthogonalEdgeStyle;rounded=0;orthogonalLoop=1;jettySize=auto;html=1;exitX=0.5;exitY=1;exitDx=0;exitDy=0;entryX=0.5;entryY=0;entryDx=0;entryDy=0;fontSize=14;strokeWidth=1;" parent="1" target="a2tKn3T9XnNzQSszcCgc-70" edge="1">
          <mxGeometry relative="1" as="geometry">
            <mxPoint x="300.9949999999999" y="1135" as="sourcePoint" />
          </mxGeometry>
        </mxCell>
        <mxCell id="a2tKn3T9XnNzQSszcCgc-62" value="Просмотр" style="shape=parallelogram;perimeter=parallelogramPerimeter;whiteSpace=wrap;html=1;fixedSize=1;fontSize=14;" parent="1" vertex="1">
          <mxGeometry x="240.995" y="1135" width="120" height="60" as="geometry" />
        </mxCell>
        <mxCell id="a2tKn3T9XnNzQSszcCgc-69" style="edgeStyle=orthogonalEdgeStyle;rounded=0;orthogonalLoop=1;jettySize=auto;html=1;exitX=1;exitY=0.5;exitDx=0;exitDy=0;fontSize=14;strokeWidth=1;" parent="1" source="a2tKn3T9XnNzQSszcCgc-63" edge="1">
          <mxGeometry relative="1" as="geometry">
            <mxPoint x="412" y="1005" as="targetPoint" />
            <Array as="points">
              <mxPoint x="581" y="1206" />
              <mxPoint x="581" y="1005" />
            </Array>
          </mxGeometry>
        </mxCell>
        <mxCell id="a2tKn3T9XnNzQSszcCgc-63" value="Обновление БД" style="shape=parallelogram;perimeter=parallelogramPerimeter;whiteSpace=wrap;html=1;fixedSize=1;fontSize=14;" parent="1" vertex="1">
          <mxGeometry x="450.005" y="1176" width="120" height="60" as="geometry" />
        </mxCell>
        <mxCell id="a2tKn3T9XnNzQSszcCgc-64" value="Да" style="endArrow=classic;html=1;rounded=0;fontSize=14;strokeWidth=1;entryX=0.5;entryY=0;entryDx=0;entryDy=0;exitX=0;exitY=0.5;exitDx=0;exitDy=0;" parent="1" source="a2tKn3T9XnNzQSszcCgc-55" edge="1" target="a2tKn3T9XnNzQSszcCgc-62">
          <mxGeometry x="-0.3402" y="-14" width="50" height="50" relative="1" as="geometry">
            <mxPoint x="344" y="1049" as="sourcePoint" />
            <mxPoint x="300.9949999999999" y="1075" as="targetPoint" />
            <Array as="points">
              <mxPoint x="301" y="1053" />
            </Array>
            <mxPoint as="offset" />
          </mxGeometry>
        </mxCell>
        <mxCell id="a2tKn3T9XnNzQSszcCgc-70" value="1" style="ellipse;whiteSpace=wrap;html=1;aspect=fixed;fontSize=15;" parent="1" vertex="1">
          <mxGeometry x="286.99" y="1232" width="28" height="28" as="geometry" />
        </mxCell>
        <mxCell id="a2tKn3T9XnNzQSszcCgc-74" value="" style="edgeStyle=orthogonalEdgeStyle;rounded=0;orthogonalLoop=1;jettySize=auto;html=1;fontSize=15;strokeWidth=1;exitX=0.518;exitY=0.992;exitDx=0;exitDy=0;exitPerimeter=0;" parent="1" source="a2tKn3T9XnNzQSszcCgc-72" target="a2tKn3T9XnNzQSszcCgc-73" edge="1">
          <mxGeometry relative="1" as="geometry" />
        </mxCell>
        <mxCell id="a2tKn3T9XnNzQSszcCgc-72" value="Добавление нового пользователя&amp;nbsp;" style="shape=parallelogram;perimeter=parallelogramPerimeter;whiteSpace=wrap;html=1;fixedSize=1;fontSize=15;" parent="1" vertex="1">
          <mxGeometry x="1144" y="770" width="180" height="60" as="geometry" />
        </mxCell>
        <mxCell id="a2tKn3T9XnNzQSszcCgc-84" style="edgeStyle=orthogonalEdgeStyle;rounded=0;orthogonalLoop=1;jettySize=auto;html=1;exitX=0.5;exitY=1;exitDx=0;exitDy=0;entryX=0.5;entryY=0;entryDx=0;entryDy=0;fontSize=15;strokeWidth=1;" parent="1" source="a2tKn3T9XnNzQSszcCgc-73" target="a2tKn3T9XnNzQSszcCgc-75" edge="1">
          <mxGeometry relative="1" as="geometry" />
        </mxCell>
        <mxCell id="a2tKn3T9XnNzQSszcCgc-73" value="Форма" style="whiteSpace=wrap;html=1;fontSize=16;" parent="1" vertex="1">
          <mxGeometry x="1177" y="874" width="120" height="60" as="geometry" />
        </mxCell>
        <mxCell id="a2tKn3T9XnNzQSszcCgc-83" value="Нет" style="edgeStyle=orthogonalEdgeStyle;rounded=0;orthogonalLoop=1;jettySize=auto;html=1;exitX=1;exitY=0.5;exitDx=0;exitDy=0;fontSize=15;strokeWidth=1;" parent="1" source="a2tKn3T9XnNzQSszcCgc-75" edge="1">
          <mxGeometry x="-0.861" y="18" relative="1" as="geometry">
            <mxPoint x="1236.4" y="847.5999999999999" as="targetPoint" />
            <Array as="points">
              <mxPoint x="1344" y="992" />
              <mxPoint x="1344" y="848" />
              <mxPoint x="1236" y="848" />
            </Array>
            <mxPoint as="offset" />
          </mxGeometry>
        </mxCell>
        <mxCell id="a2tKn3T9XnNzQSszcCgc-85" value="Да" style="edgeStyle=orthogonalEdgeStyle;rounded=0;orthogonalLoop=1;jettySize=auto;html=1;exitX=0.5;exitY=1;exitDx=0;exitDy=0;entryX=0.546;entryY=0.023;entryDx=0;entryDy=0;entryPerimeter=0;fontSize=15;strokeWidth=1;" parent="1" source="a2tKn3T9XnNzQSszcCgc-75" target="a2tKn3T9XnNzQSszcCgc-76" edge="1">
          <mxGeometry x="-0.058" y="13" relative="1" as="geometry">
            <Array as="points">
              <mxPoint x="1237" y="1039" />
              <mxPoint x="1238" y="1039" />
            </Array>
            <mxPoint as="offset" />
          </mxGeometry>
        </mxCell>
        <mxCell id="a2tKn3T9XnNzQSszcCgc-75" value="Аутентификация" style="rhombus;whiteSpace=wrap;html=1;" parent="1" vertex="1">
          <mxGeometry x="1174.63" y="963" width="124.75" height="58" as="geometry" />
        </mxCell>
        <mxCell id="a2tKn3T9XnNzQSszcCgc-81" style="edgeStyle=orthogonalEdgeStyle;rounded=0;orthogonalLoop=1;jettySize=auto;html=1;exitX=0.527;exitY=1.005;exitDx=0;exitDy=0;fontSize=15;strokeWidth=1;exitPerimeter=0;" parent="1" source="a2tKn3T9XnNzQSszcCgc-76" target="a2tKn3T9XnNzQSszcCgc-78" edge="1">
          <mxGeometry relative="1" as="geometry" />
        </mxCell>
        <mxCell id="a2tKn3T9XnNzQSszcCgc-76" value="Обновление БД" style="shape=parallelogram;perimeter=parallelogramPerimeter;whiteSpace=wrap;html=1;fixedSize=1;fontSize=14;" parent="1" vertex="1">
          <mxGeometry x="1167" y="1059" width="130" height="60" as="geometry" />
        </mxCell>
        <mxCell id="a2tKn3T9XnNzQSszcCgc-80" value="Нет" style="edgeStyle=orthogonalEdgeStyle;rounded=0;orthogonalLoop=1;jettySize=auto;html=1;exitX=0;exitY=0.5;exitDx=0;exitDy=0;entryX=0.5;entryY=0;entryDx=0;entryDy=0;fontSize=15;strokeWidth=1;" parent="1" source="a2tKn3T9XnNzQSszcCgc-78" target="a2tKn3T9XnNzQSszcCgc-79" edge="1">
          <mxGeometry x="-0.5193" y="-11" relative="1" as="geometry">
            <mxPoint as="offset" />
          </mxGeometry>
        </mxCell>
        <mxCell id="a2tKn3T9XnNzQSszcCgc-82" value="Да" style="edgeStyle=orthogonalEdgeStyle;rounded=0;orthogonalLoop=1;jettySize=auto;html=1;exitX=1;exitY=0.5;exitDx=0;exitDy=0;fontSize=15;strokeWidth=1;" parent="1" source="a2tKn3T9XnNzQSszcCgc-78" edge="1">
          <mxGeometry x="-0.9281" y="15" relative="1" as="geometry">
            <mxPoint x="1234" y="752" as="targetPoint" />
            <Array as="points">
              <mxPoint x="1409" y="1206" />
              <mxPoint x="1409" y="752" />
            </Array>
            <mxPoint as="offset" />
          </mxGeometry>
        </mxCell>
        <mxCell id="a2tKn3T9XnNzQSszcCgc-78" value="Добавление в БД" style="rhombus;whiteSpace=wrap;html=1;" parent="1" vertex="1">
          <mxGeometry x="1172.25" y="1177" width="124.75" height="58" as="geometry" />
        </mxCell>
        <mxCell id="a2tKn3T9XnNzQSszcCgc-79" value="3" style="ellipse;whiteSpace=wrap;html=1;aspect=fixed;fontSize=17;" parent="1" vertex="1">
          <mxGeometry x="1100" y="1232" width="28" height="28" as="geometry" />
        </mxCell>
      </root>
    </mxGraphModel>
  </diagram>
</mxfile>
